<?xml version="1.0" standalone="no"?>
<!DOCTYPE svg PUBLIC "-//W3C//DTD SVG 20010904//EN"
 "http://www.w3.org/TR/2001/REC-SVG-20010904/DTD/svg10.dtd">
<svg version="1.0" xmlns="http://www.w3.org/2000/svg"
 width="1400.000000pt" height="948.000000pt" viewBox="0 0 1400.000000 948.000000"
 preserveAspectRatio="xMidYMid meet">

<g transform="translate(0.000000,948.000000) scale(0.100000,-0.100000)"
fill="#000000" stroke="none">
<path d="M0 4740 l0 -4740 7000 0 7000 0 0 4740 0 4740 -7000 0 -7000 0 0
-4740z m6578 1303 l332 -6 0 -219 0 -218 -105 0 -104 0 -3 108 -3 107 -167 1
c-93 0 -168 -2 -168 -5 0 -3 123 -104 274 -225 l274 -218 7 -100 c4 -54 4
-102 0 -106 -11 -11 -895 -6 -907 6 -6 6 -7 80 -3 211 l8 201 103 0 104 0 0
-115 0 -115 175 0 c96 0 175 3 174 8 0 4 -126 107 -280 230 l-279 223 0 120 0
119 118 0 c65 0 268 -3 450 -7z m965 -163 l222 -160 3 160 2 160 115 0 115 0
0 -187 c0 -104 -3 -239 -7 -300 l-6 -113 -102 0 -103 0 -223 165 c-123 90
-226 165 -229 165 -3 0 -5 -71 -5 -157 l0 -158 -110 0 -110 0 -3 293 -2 292
111 0 111 0 221 -160z m445 -598 l3 -122 -438 2 -438 3 -3 117 -3 118 398 3
c219 1 416 3 438 2 l40 0 3 -123z m-1104 -469 l57 -61 -236 -219 -236 -218
211 -3 211 -2 -3 -108 -3 -107 -322 -3 -323 -2 0 -55 0 -55 -110 0 -110 0 0
303 c0 167 -3 365 -7 440 l-6 137 122 0 123 0 -7 -225 c-4 -124 -5 -225 -1
-225 4 0 129 113 279 250 255 235 272 249 287 233 9 -10 42 -46 74 -80z m1104
62 c9 -3 12 -56 12 -220 l0 -215 -115 0 -115 0 0 105 0 105 -200 0 -200 0 0
-330 0 -330 -110 0 -110 0 0 329 c0 283 -2 330 -15 335 -12 4 -15 26 -15 110
0 89 3 106 17 115 17 9 820 5 851 -4z m-1880 -1217 l3 -58 49 0 49 0 3 58 c3
56 3 57 36 60 l32 3 0 -146 0 -146 -32 3 c-33 3 -33 4 -36 61 l-3 57 -49 0
-49 0 -3 -57 c-3 -57 -3 -58 -35 -61 l-33 -3 0 146 0 146 33 -3 c32 -3 32 -4
35 -60z m422 44 c139 -70 82 -282 -73 -269 -57 5 -95 30 -120 78 -22 42 -18
110 10 148 24 33 79 61 118 61 17 0 46 -8 65 -18z m188 -89 c2 -91 5 -104 23
-113 27 -15 58 -3 70 27 5 13 9 62 9 109 l0 84 30 0 30 0 0 -110 c0 -107 -1
-110 -29 -142 -27 -30 -35 -33 -86 -33 -51 0 -59 3 -86 33 -28 32 -29 35 -29
143 l0 110 33 -3 32 -3 3 -102z m371 92 c28 -14 41 -33 41 -61 0 -20 -66 -19
-74 1 -8 23 -56 19 -56 -4 0 -13 16 -25 56 -41 65 -27 89 -56 79 -99 -8 -38
-34 -60 -78 -68 -66 -10 -127 22 -127 67 0 16 7 20 34 20 21 0 36 -6 40 -15 7
-19 52 -19 60 0 6 17 -21 37 -77 55 -69 22 -83 105 -23 141 37 23 87 24 125 4z
m261 -15 c0 -29 -1 -30 -50 -30 -49 0 -50 -1 -50 -30 0 -29 2 -30 45 -30 41 0
45 -2 45 -25 0 -23 -4 -25 -45 -25 -43 0 -45 -1 -45 -30 0 -29 1 -30 50 -30
49 0 50 -1 50 -30 l0 -30 -85 0 -85 0 0 138 c0 76 3 142 7 145 3 4 42 7 85 7
l78 0 0 -30z m220 -10 c16 -31 11 -79 -10 -100 -20 -20 -63 -26 -95 -14 -27
11 -45 62 -33 97 20 55 111 67 138 17z"/>
<path d="M6434 3650 c-11 -4 -27 -22 -34 -39 -22 -54 4 -107 57 -117 26 -5 37
-1 57 19 63 63 0 171 -80 137z"/>
<path d="M7461 3676 c-29 -30 -23 -68 15 -92 31 -21 68 -7 86 31 10 22 8 30
-9 53 -27 36 -62 40 -92 8z m64 -37 c1 -21 -4 -26 -22 -26 -17 0 -23 5 -23 22
0 27 9 37 30 33 9 -2 15 -14 15 -29z"/>
</g>
</svg>
